<svg xmlns="http://www.w3.org/2000/svg" width="37" height="35.307" viewBox="0 0 37 35.307"><g transform="translate(0 -0.467)"><path d="M18.376,213.475a9.463,9.463,0,0,1-3.77-.779l-5.7-2.48a21.633,21.633,0,0,0-6.486-1.69l-1.873-.187a.6.6,0,0,1-.543-.6v-5.876a.6.6,0,0,1,.121-.362c.14-.187,3.5-4.574,8.626-3.432a21.78,21.78,0,0,1,6.647,2.734,6.712,6.712,0,0,0,3.545.991h5.7a2.74,2.74,0,0,1,2.331,1.3l4.913-5.66a5.212,5.212,0,0,1,4.142-2.051H36.4a.6.6,0,0,1,.552.846l-4.444,10.1a7.917,7.917,0,0,1-5.291,4.463l-.782.2L21.885,212.8a9.46,9.46,0,0,1-3.508.67Zm-17.17-6.282,1.33.133a22.849,22.849,0,0,1,6.847,1.784l5.7,2.48a8.3,8.3,0,0,0,6.35.094l4.585-1.834a.616.616,0,0,1,.078-.025l.821-.206a6.7,6.7,0,0,0,4.48-3.778l4.053-9.211a4.031,4.031,0,0,0-2.629,1.56l-5.443,6.273c0,.023,0,.047,0,.07a2.743,2.743,0,0,1-2.74,2.74H16.685a9.6,9.6,0,0,0-3.039.493l-.221-.562-.187-.573.031-.01a10.793,10.793,0,0,1,3.417-.554h7.959a1.534,1.534,0,1,0,0-3.068h-5.7a7.916,7.916,0,0,1-4.18-1.172,20.573,20.573,0,0,0-6.273-2.582c-3.884-.861-6.679,2.119-7.28,2.83v5.117Zm0,0" transform="translate(0 -177.701)"/><path d="M229.775,101.212a7.077,7.077,0,0,1-3.112-.859.606.606,0,0,1-.3-.336c-.047-.131-1.124-3.23.588-5.522,1.244-1.666,3.584-2.416,6.958-2.228a.6.6,0,0,1,.568.572c.012.239.261,5.891-2.621,7.772A3.727,3.727,0,0,1,229.775,101.212Zm-2.343-1.826c1.584.743,2.85.816,3.768.216,1.709-1.116,2.078-4.429,2.087-6.153-2.644-.065-4.444.531-5.368,1.768a5.055,5.055,0,0,0-.487,4.169Zm0,0" transform="translate(-206.029 -83.666)"/><path d="M103.611,9.646a5.642,5.642,0,0,1-3.379-1.017c-1.826-1.338-2.665-3.885-2.494-7.57A.6.6,0,0,1,98.3.484c.261-.015,6.434-.344,8.511,2.774.967,1.451.888,3.352-.235,5.651a.6.6,0,0,1-.334.3,8.326,8.326,0,0,1-2.636.436Zm2.428-1h.006ZM98.925,1.67c-.052,2.952.627,4.964,2.02,5.985,1.668,1.222,3.946.7,4.663.494.819-1.778.889-3.2.206-4.223-1.27-1.906-4.993-2.278-6.888-2.256Zm0,0" transform="translate(-89.086)"/><path d="M146.071,64.915l-.057,0a.6.6,0,0,1-.545-.631q.053-1.064.179-2.02c.251-4.267.121-14.2-6.161-16.952a.6.6,0,1,1,.483-1.1c3.7,1.62,6.031,5.652,6.734,11.662.063.539.11,1.069.146,1.587,1.655-4.181,4.186-5.658,4.337-5.743a.6.6,0,0,1,.593,1.05c-.064.037-3.945,2.367-4.92,9.55-.074,1.229-.181,2.012-.191,2.084a.6.6,0,0,1-.6.52Zm0,0" transform="translate(-126.838 -39.829)"/></g></svg>