<svg xmlns="http://www.w3.org/2000/svg" width="50" height="52.771" viewBox="0 0 50 52.771"><g transform="translate(0 0)"><path d="M141.28,363.566a5.629,5.629,0,0,0,0,6.253l1.464-.976a3.87,3.87,0,0,1,0-4.3Zm0,0" transform="translate(-124.904 -323.597)"/><path d="M302.8,400.008h1.759v1.759H302.8Zm0,0" transform="translate(-269.515 -356.032)"/><path d="M334.805,384.008h1.759v1.759h-1.759Zm0,0" transform="translate(-297.997 -341.791)"/><path d="M326.8,424.008h1.759v1.759H326.8Zm0,0" transform="translate(-290.877 -377.394)"/><path d="M86.8,256.008h1.759v1.759H86.8Zm0,0" transform="translate(-77.262 -227.863)"/><path d="M110.805,288.008h1.759v1.759h-1.759Zm0,0" transform="translate(-98.623 -256.345)"/><path d="M86.8,320.008h1.759v1.759H86.8Zm0,0" transform="translate(-77.262 -284.827)"/><path d="M42.806,13.524a9.663,9.663,0,0,0-1.522-.264l.8-8.781a.88.88,0,0,0-1.47-.727l-2.9,2.655L34.967.514A.86.86,0,0,0,34.146,0a.88.88,0,0,0-.792.552l-2.447,6.11L27.729,3.751a.879.879,0,0,0-1.46.806l1.583,8.7a9.392,9.392,0,0,0-2.08.458,9.588,9.588,0,0,0-4.794,3.594V9.1a.88.88,0,0,0-.316-.676l-8.8-7.335a.88.88,0,0,0-1.186.054L8.192,3.628a.88.88,0,0,0,.068,1.3L15.7,10.974v8.377H11.722l1.671-1.671a.879.879,0,0,0,0-1.243A7.915,7.915,0,0,0,2.2,27.628a.879.879,0,0,0,1.244,0l2-2L6.818,50.272a2.626,2.626,0,0,0,2.63,2.5H25.375c.018,0,.033-.009.049-.01h.031a3.343,3.343,0,0,0,1.129-.287,9.487,9.487,0,0,0,2.308.3H40.327A9.478,9.478,0,0,0,44.32,51.9,9.675,9.675,0,0,0,50,43.1V22.869a9.686,9.686,0,0,0-7.2-9.346Zm5.3,31.029-.916-.664,1.056-.791A7.882,7.882,0,0,1,48.1,44.553ZM35.116,50.886l-.048.007a7.5,7.5,0,0,1-5.935-1.463l1.438-2.639a9.349,9.349,0,0,0,.8-6.935,3.355,3.355,0,0,0,4.3-.383.88.88,0,0,0-1.244-1.244,1.48,1.48,0,0,1-.246.2,6.689,6.689,0,0,1,.082-1.2V37.2a6.769,6.769,0,0,1,.316-1.086c.246.028.5.067.765.124l.047.009a7.516,7.516,0,0,1,4.684,3.334,6.853,6.853,0,0,1,.764,1.658,7.181,7.181,0,0,1,.368,2.3,7.472,7.472,0,0,1-.771,3.323,8.985,8.985,0,0,1-.667,1.1,7.512,7.512,0,0,1-4.652,2.931ZM25.337,51a.637.637,0,0,0-.111.011,1.956,1.956,0,0,1-.313-.029,1.723,1.723,0,0,1-.9-.469l-.294-.3a3.137,3.137,0,0,0-4.416,0l-.291.29a1.733,1.733,0,0,1-2.748-.4l-2.269-4.162a7.627,7.627,0,0,1,.071-7.4,3.15,3.15,0,0,1,2.6-1.6,1.489,1.489,0,0,1,.17,0,3.2,3.2,0,0,1,2.55,1.275c.012.015.024.031.039.047s.033.033.049.052l.005.006a2.633,2.633,0,0,0,4.144-.1,3.233,3.233,0,0,1,1.232-.985,1.74,1.74,0,0,1,.292-.114,3.184,3.184,0,0,1,1.094-.176,3.125,3.125,0,0,1,1.536.425,3.477,3.477,0,0,1,.34.228,3.277,3.277,0,0,1,.831.957,7.37,7.37,0,0,1,.566,1.231,7.616,7.616,0,0,1-.489,6.163L26.75,50.117a1.615,1.615,0,0,1-.682.674,1.642,1.642,0,0,1-.731.214Zm3.557-36.049h.4l-.546.419-.551-.388C28.43,14.965,28.661,14.954,28.893,14.954Zm3.289,0h4.163l2.111,1.483-3.914,3.01-4.281-3.013Zm8.195,0-.464.352-.511-.352h.975ZM41,37.844a9.324,9.324,0,0,0-3.634-2.8l2.872-2.269,3.835,2.639Zm-10.091.381a.915.915,0,0,0-.084.126c-.109-.234-.226-.463-.352-.682a4.932,4.932,0,0,0-.44-.621,7.3,7.3,0,0,1,2.691-.909c-.07.249-.141.5-.191.765a.5.5,0,0,0-.01.067,8.468,8.468,0,0,0-.106,1.463,1.505,1.505,0,0,1-.264-.208.879.879,0,0,0-1.246,0Zm-8.87-.884a6.362,6.362,0,0,1,2.535-4.973A.879.879,0,1,0,23.52,30.96a8.107,8.107,0,0,0-2.543,3.212V26.387h4.934l-.007.131v.009l-.485,8.719a4.69,4.69,0,0,0-.827.2,3.1,3.1,0,0,0-.523.21,4.915,4.915,0,0,0-1.855,1.5.858.858,0,0,1-.175.176Zm14.845-5.325a.879.879,0,0,0-1.231-.17,8.212,8.212,0,0,0-2,2.192l-2.362-1.718,3.85-3.049,3.585,2.462L35.986,33.9a6.4,6.4,0,0,1,.733-.66.879.879,0,0,0,.166-1.227Zm-.308-3.883,3.409-2.7,3.542,2.493L40.161,30.6Zm-1.516-1.042-4-2.75,3.518-2.71,3.9,2.745Zm-1.443,1.143-3.807,3.013L27.5,29.565l.144-2.587L29.6,25.467Zm-6.236,3.422,1,.725-1.085.859Zm.387-7,.024-.431.284.194Zm2.086,8.8L31.423,34.6a9.065,9.065,0,0,0-2.784,1.242,4.782,4.782,0,0,0-1.184-.482Zm11.823-1.816,3.354-2.658,3.21,2.259v.868l-2.727,2.163Zm3.293-4.847-3.546-2.5,3.855-3.052,2.963,2.08v.869Zm-5.046-3.552-3.877-2.727L39.96,17.5l3.819,2.687Zm-6.844-2.67-3.537,2.722-1.635-1.128.107-1.887a.88.88,0,0,0-.88-.928h-.669L28.8,17.557ZM26.2,21.11l-.195,3.518H20.978V21.11Zm-6.986,3.518H17.46V21.11h1.759Zm0,1.759v9.419a4.966,4.966,0,0,0-1.759-.581V26.387ZM42.943,42.973l1.285.936-1.383,1.036a9.192,9.192,0,0,0,.12-1.407c0-.19-.011-.377-.022-.565ZM42.4,40.4a8.41,8.41,0,0,0-.453-1.055l3.643-2.887,2.655,1.825V40.9L45.7,42.8Zm5.845-4.251-1.213-.834,1.213-.962Zm0-7.06-1.769-1.247,1.769-1.4ZM46.718,20.1l.761-.6a7.7,7.7,0,0,1,.528,1.507Zm-.167-2.111-1.333,1.056-3.8-2.672,1.334-1.026a7.805,7.805,0,0,1,3.8,2.643Zm-7.027-4.8h-6.61l7.212-6.61Zm-5.293-10.1,2.125,4.559-2.185,2L32.292,7.933Zm-1.36,7.753-2.56,2.346h-.683l-1.159-6.38Zm-6.939,4.691,1.36.957-3.606,2.772-1.31-.9a7.839,7.839,0,0,1,3.556-2.831Zm-8.8-5.666L10.126,4.182l1.231-1.231,7.862,6.556v9.844H17.46v-8.8a.88.88,0,0,0-.326-.683ZM15.7,21.11v3.518H7.148l-.037-.666,1.3-1.305.014-.014L9.963,21.11ZM7.8,15.877A6.144,6.144,0,0,1,11.486,17.1L8.979,19.606l-.007.007-.67.67L7.287,15.9c.17-.014.34-.024.512-.024Zm-4.355,1.8A6.133,6.133,0,0,1,5.573,16.3l1.085,4.687L1.909,20.3a6.092,6.092,0,0,1,1.536-2.62Zm-.577,8.04a6.117,6.117,0,0,1-1.2-3.678l4.264.616ZM8.577,50.181,7.247,26.387H15.7V35.32a5.155,5.155,0,0,0-1.364.528,5.021,5.021,0,0,0-1.8,1.826,9.4,9.4,0,0,0-.088,9.118l2.268,4.159c.012.022.028.042.04.064H9.448a.871.871,0,0,1-.871-.834Zm30.567.832a9.283,9.283,0,0,0,1.479-1.319l1.483,1.116a7.821,7.821,0,0,1-1.778.2Zm4.9-.946-2.389-1.8c.077-.13.154-.269.229-.409l3.828-2.87,1.83,1.333a7.891,7.891,0,0,1-3.5,3.744Zm0,0" transform="translate(-0.001 -0.001)"/></g></svg>