<svg xmlns="http://www.w3.org/2000/svg" width="21.333" height="21.333" viewBox="0 0 21.333 21.333"><path d="M6.4,17.067A2.133,2.133,0,1,0,8.533,19.2,2.14,2.14,0,0,0,6.4,17.067ZM0,0V2.133H2.133l3.84,8.107L4.48,12.8a3.79,3.79,0,0,0-.213,1.067A2.14,2.14,0,0,0,6.4,16H19.2V13.867H6.827a.229.229,0,0,1-.213-.213v-.107l.96-1.813h7.893a1.945,1.945,0,0,0,1.813-1.067l3.84-6.933a.587.587,0,0,0,.213-.533,1.008,1.008,0,0,0-1.067-1.067H4.48L3.52,0ZM17.067,17.067A2.133,2.133,0,1,0,19.2,19.2,2.14,2.14,0,0,0,17.067,17.067Z"/></svg>